<!-- SVG for background dots -->
<svg class="dots"
    xmlns="http://www.w3.org/2000/svg" viewBox="0 0 200 200">
    <g fill="#2E2E2E">
        <circle cx="10" cy="10" r="7.25" />
        <circle cx="50" cy="10" r="7.25" />
        <circle cx="90" cy="10" r="7.25" />
        <circle cx="130" cy="10" r="7.25" />
        <circle cx="170" cy="10" r="7.25" />
        <circle cx="10" cy="50" r="7.25" />
        <circle cx="50" cy="50" r="7.25" />
        <circle cx="90" cy="50" r="7.25" />
        <circle cx="130" cy="50" r="7.25" />
        <circle cx="170" cy="50" r="7.25" />
        <circle cx="10" cy="90" r="7.25" />
        <circle cx="50" cy="90" r="7.25" />
        <circle cx="90" cy="90" r="7.25" />
        <circle cx="130" cy="90" r="7.25" />
        <circle cx="170" cy="90" r="7.25" />
        <circle cx="10" cy="130" r="7.25" />
        <circle cx="50" cy="130" r="7.25" />
        <circle cx="90" cy="130" r="7.25" />
        <circle cx="130" cy="130" r="7.25" />
        <circle cx="170" cy="130" r="7.25" />
        <circle cx="10" cy="170" r="7.25" />
        <circle cx="50" cy="170" r="7.25" />
        <circle cx="90" cy="170" r="7.25" />
        <circle cx="130" cy="170" r="7.25" />
        <circle cx="170" cy="170" r="7.25" />
    </g>
</svg>